<svg width="40" height="40" viewBox="0 0 40 40" fill="none" xmlns="http://www.w3.org/2000/svg">
<g id="Money">
<path id="Vector" d="M26.394 20.288C26.394 21.4867 26.0386 22.6584 25.3726 23.6551C24.7067 24.6518 23.7602 25.4286 22.6527 25.8873C21.5453 26.346 20.3267 26.466 19.1511 26.2322C17.9754 25.9983 16.8955 25.4211 16.0479 24.5735C15.2003 23.7259 14.6231 22.646 14.3893 21.4704C14.1554 20.2947 14.2754 19.0761 14.7342 17.9687C15.1929 16.8613 15.9697 15.9147 16.9663 15.2488C17.963 14.5828 19.1348 14.2274 20.3334 14.2274C21.9408 14.2274 23.4823 14.8659 24.6189 16.0025C25.7555 17.1391 26.394 18.6806 26.394 20.288ZM38.5152 10.591V29.985C38.5152 30.3064 38.3875 30.6148 38.1602 30.8421C37.9329 31.0694 37.6246 31.1971 37.3031 31.1971H3.36373C3.04226 31.1971 2.73395 31.0694 2.50663 30.8421C2.27932 30.6148 2.15161 30.3064 2.15161 29.985V10.591C2.15161 10.2696 2.27932 9.96125 2.50663 9.73393C2.73395 9.50661 3.04226 9.37891 3.36373 9.37891H37.3031C37.6246 9.37891 37.9329 9.50661 38.1602 9.73393C38.3875 9.96125 38.5152 10.2696 38.5152 10.591ZM36.091 17.6138C34.7146 17.2068 33.462 16.4619 32.4471 15.4471C31.4322 14.4322 30.6874 13.1795 30.2804 11.8031H10.3865C9.9795 13.1795 9.23465 14.4322 8.21977 15.4471C7.20488 16.4619 5.95221 17.2068 4.57585 17.6138V22.9622C5.95221 23.3692 7.20488 24.114 8.21977 25.1289C9.23465 26.1438 9.9795 27.3965 10.3865 28.7728H30.2804C30.6874 27.3965 31.4322 26.1438 32.4471 25.1289C33.462 24.114 34.7146 23.3692 36.091 22.9622V17.6138Z" fill="#445DDE"/>
</g>
</svg>
