<svg width="40" height="40" viewBox="0 0 40 40" fill="none" xmlns="http://www.w3.org/2000/svg">
<g id="Motorcycle" clip-path="url(#clip0_1037_1933)">
<path id="Vector" d="M7.00602 18.7704C7.34105 18.7712 7.67548 18.7991 8.00602 18.8538L8.88784 16.5598C8.27058 16.4181 7.63932 16.3465 7.00602 16.3462C6.68454 16.3462 6.37624 16.2185 6.14892 15.9912C5.9216 15.7638 5.7939 15.4555 5.7939 15.1341C5.7939 14.8126 5.9216 14.5043 6.14892 14.277C6.37624 14.0496 6.68454 13.9219 7.00602 13.9219H9.90299L11.9348 8.6386C12.0227 8.40979 12.178 8.21303 12.3801 8.07426C12.5821 7.93549 12.8215 7.86125 13.0666 7.86133H17.9151C18.2366 7.86133 18.5449 7.98903 18.7722 8.21635C18.9995 8.44367 19.1272 8.75197 19.1272 9.07345C19.1272 9.39492 18.9995 9.70323 18.7722 9.93055C18.5449 10.1579 18.2366 10.2856 17.9151 10.2856H13.8984L12.5 13.9219H16.703C19.506 13.9219 21.7787 14.575 23.2742 15.8098C23.6261 16.0937 24.0504 16.2735 24.4992 16.3289C24.9479 16.3844 25.4032 16.3132 25.8136 16.1234C27.4166 15.3947 36.9181 11.5598 36.9954 11.5386C37.2974 11.4498 37.622 11.482 37.9007 11.6283C38.1793 11.7746 38.3902 12.0236 38.4886 12.3225C38.587 12.6215 38.5653 12.947 38.428 13.2302C38.2907 13.5134 38.0486 13.7322 37.753 13.8401C37.753 13.8401 29.3439 17.1644 27.6727 18.831C26.3744 20.1241 25.5324 21.8048 25.2742 23.6189H27.7333C28.0337 22.1473 28.8698 20.8397 30.0795 19.9496C31.2892 19.0594 32.7863 18.6502 34.2806 18.8011C35.7749 18.9521 37.1599 19.6525 38.1672 20.7666C39.1744 21.8807 39.7321 23.3291 39.7321 24.831C39.7321 26.3329 39.1744 27.7813 38.1672 28.8955C37.1599 30.0096 35.7749 30.71 34.2806 30.8609C32.7863 31.0119 31.2892 30.6026 30.0795 29.7125C28.8698 28.8223 28.0337 27.5147 27.7333 26.0431H19.8363C18.785 26.0455 17.7616 25.705 16.9211 25.0735C16.0807 24.4419 15.469 23.5536 15.1787 22.5431C14.8764 21.4684 14.3649 20.4638 13.6735 19.5871C12.9822 18.7104 12.1246 17.9787 11.15 17.4341L10.2681 19.7265C11.4967 20.5128 12.4004 21.7158 12.8135 23.1148C13.2265 24.5137 13.1212 26.0147 12.5168 27.3422C11.9124 28.6697 10.8495 29.7348 9.52323 30.3418C8.19692 30.9489 6.69616 31.0572 5.2964 30.647C3.89664 30.2368 2.69179 29.3354 1.90299 28.1085C1.11418 26.8815 0.794341 25.4113 1.00217 23.9675C1.21 22.5238 1.93154 21.2034 3.03439 20.2487C4.13723 19.2941 5.54738 18.7692 7.00602 18.7704ZM33.6727 26.0431H30.2454C30.5313 26.8519 31.094 27.5335 31.8339 27.9675C32.5738 28.4016 33.4433 28.5601 34.2887 28.415C35.1342 28.27 35.9011 27.8307 36.454 27.1749C37.0069 26.519 37.3102 25.6888 37.3102 24.831C37.3102 23.9732 37.0069 23.143 36.454 22.4872C35.9011 21.8314 35.1342 21.3921 34.2887 21.247C33.4433 21.102 32.5738 21.2605 31.8339 21.6945C31.094 22.1285 30.5313 22.8102 30.2454 23.6189H33.6727C33.9942 23.6189 34.3025 23.7466 34.5298 23.9739C34.7571 24.2012 34.8848 24.5096 34.8848 24.831C34.8848 25.1525 34.7571 25.4608 34.5298 25.6881C34.3025 25.9154 33.9942 26.0431 33.6727 26.0431ZM7.00602 28.4674C7.74879 28.4665 8.47346 28.2381 9.08257 27.813C9.69167 27.3879 10.156 26.7865 10.4131 26.0897C10.6702 25.3928 10.7077 24.6339 10.5206 23.9151C10.3335 23.1963 9.93082 22.552 9.36663 22.0689L8.13784 25.2659C8.02251 25.5661 7.79266 25.8081 7.49885 25.9388C7.20504 26.0695 6.87135 26.0782 6.57117 25.9628C6.27099 25.8475 6.02893 25.6177 5.89822 25.3239C5.76751 25.03 5.75887 24.6964 5.8742 24.3962L7.1045 21.1947H7.00602C6.0416 21.1947 5.11667 21.5778 4.43472 22.2597C3.75277 22.9417 3.36966 23.8666 3.36966 24.831C3.36966 25.7954 3.75277 26.7204 4.43472 27.4023C5.11667 28.0843 6.0416 28.4674 7.00602 28.4674Z" fill="#445DDE"/>
</g>
<defs>
<clipPath id="clip0_1037_1933">
<rect width="38.7879" height="38.7879" fill="white" transform="translate(0.939453 0.589844)"/>
</clipPath>
</defs>
</svg>
